<svg width="22" height="22" viewBox="0 0 22 22" fill="none" xmlns="http://www.w3.org/2000/svg">
<path d="M10.0621 1.53451C10.3843 0.663889 11.6157 0.663888 11.9379 1.53451L14.0815 7.32767C14.1828 7.60139 14.3986 7.8172 14.6723 7.91848L20.4655 10.0621C21.3361 10.3843 21.3361 11.6157 20.4655 11.9379L14.6723 14.0815C14.3986 14.1828 14.1828 14.3986 14.0815 14.6723L11.9379 20.4655C11.6157 21.3361 10.3843 21.3361 10.0621 20.4655L7.91848 14.6723C7.8172 14.3986 7.60139 14.1828 7.32767 14.0815L1.53451 11.9379C0.663889 11.6157 0.663888 10.3843 1.53451 10.0621L7.32767 7.91848C7.60139 7.8172 7.8172 7.60139 7.91848 7.32767L10.0621 1.53451Z" fill="#D9D9D9"/>
<path d="M10.0621 1.53451C10.3843 0.663889 11.6157 0.663888 11.9379 1.53451L14.0815 7.32767C14.1828 7.60139 14.3986 7.8172 14.6723 7.91848L20.4655 10.0621C21.3361 10.3843 21.3361 11.6157 20.4655 11.9379L14.6723 14.0815C14.3986 14.1828 14.1828 14.3986 14.0815 14.6723L11.9379 20.4655C11.6157 21.3361 10.3843 21.3361 10.0621 20.4655L7.91848 14.6723C7.8172 14.3986 7.60139 14.1828 7.32767 14.0815L1.53451 11.9379C0.663889 11.6157 0.663888 10.3843 1.53451 10.0621L7.32767 7.91848C7.60139 7.8172 7.8172 7.60139 7.91848 7.32767L10.0621 1.53451Z" fill="url(#paint0_linear_818_2144)"/>
<defs>
<linearGradient id="paint0_linear_818_2144" x1="11" y1="23" x2="11" y2="-1" gradientUnits="userSpaceOnUse">
<stop stop-color="#134679"/>
<stop offset="1" stop-color="#226DB8"/>
</linearGradient>
</defs>
</svg>
