<svg width="80" height="37" viewBox="0 0 80 37" fill="none" xmlns="http://www.w3.org/2000/svg">
<path fill-rule="evenodd" clip-rule="evenodd" d="M32.059 24.2482C34.4101 24.2482 36.3166 26.153 36.3166 28.5038C36.3166 30.8537 34.4102 32.7593 32.059 32.7593C29.7077 32.7593 27.8013 30.8537 27.8013 28.5038C27.8013 26.153 29.7078 24.2482 32.059 24.2482Z" fill="#A97D34"/>
<path fill-rule="evenodd" clip-rule="evenodd" d="M2.97395 32.7624V3.67121H26.3815V10.5281H10.957V14.9337H26.3815V21.2916H10.957V25.9047H26.3815V32.7624H2.97395Z" fill="white"/>
<path fill-rule="evenodd" clip-rule="evenodd" d="M36.2791 21.2916L28.2962 13.3078V3.67121H33.623L47.7955 19.0483V13.3078L55.7779 21.2916V32.7624H51.5955L36.2791 16.8036V21.2916Z" fill="#25B3B5"/>
<path fill-rule="evenodd" clip-rule="evenodd" d="M60.1194 10.7359H47.7955V3.67121H76.9163V10.7359H68.1854V27.1236C68.1854 30.2703 64.5199 32.7624 60.1194 32.7624V10.7359Z" fill="white"/>
</svg>
