<svg width="1920" height="1371" viewBox="0 0 1920 1371" fill="none" xmlns="http://www.w3.org/2000/svg">
<line x1="-133.556" y1="771.994" x2="2194.51" y2="771.994" stroke="#134679" stroke-opacity="0.07" stroke-width="1.94168"/>
<line x1="-133.556" y1="1269.06" x2="2194.51" y2="1269.06" stroke="#134679" stroke-opacity="0.07" stroke-width="1.94168"/>
<line x1="-133.556" y1="274.925" x2="2194.51" y2="274.925" stroke="#134679" stroke-opacity="0.07" stroke-width="1.94168"/>
<line x1="-133.556" y1="523.458" x2="2194.51" y2="523.458" stroke="#134679" stroke-opacity="0.07" stroke-width="1.94168"/>
<line x1="-133.556" y1="1020.53" x2="2194.51" y2="1020.53" stroke="#134679" stroke-opacity="0.07" stroke-width="1.94168"/>
<line x1="-133.556" y1="26.3893" x2="2194.51" y2="26.3893" stroke="#134679" stroke-opacity="0.07" stroke-width="1.94168"/>
<line x1="-133.556" y1="647.726" x2="2194.51" y2="647.726" stroke="#134679" stroke-opacity="0.07" stroke-width="1.94168"/>
<line x1="-133.556" y1="1144.79" x2="2194.51" y2="1144.79" stroke="#134679" stroke-opacity="0.07" stroke-width="1.94168"/>
<line x1="-133.556" y1="150.657" x2="2194.51" y2="150.657" stroke="#134679" stroke-opacity="0.07" stroke-width="1.94168"/>
<line x1="-133.556" y1="399.19" x2="2194.51" y2="399.19" stroke="#134679" stroke-opacity="0.07" stroke-width="1.94168"/>
<line x1="-133.556" y1="896.261" x2="2194.51" y2="896.261" stroke="#134679" stroke-opacity="0.07" stroke-width="1.94168"/>
<line x1="933.399" y1="-265.832" x2="933.399" y2="1532.16" stroke="#134679" stroke-opacity="0.07" stroke-width="1.94168"/>
<line x1="436.327" y1="-265.833" x2="436.327" y2="1532.16" stroke="#134679" stroke-opacity="0.07" stroke-width="1.94168"/>
<line x1="1430.46" y1="-265.832" x2="1430.46" y2="1532.16" stroke="#134679" stroke-opacity="0.07" stroke-width="1.94168"/>
<line x1="187.791" y1="-265.832" x2="187.791" y2="1532.16" stroke="#134679" stroke-opacity="0.07" stroke-width="1.94168"/>
<line x1="1181.93" y1="-265.832" x2="1181.93" y2="1532.16" stroke="#134679" stroke-opacity="0.07" stroke-width="1.94168"/>
<line x1="684.863" y1="-265.832" x2="684.863" y2="1532.16" stroke="#134679" stroke-opacity="0.07" stroke-width="1.94168"/>
<line x1="1679" y1="-265.833" x2="1679" y2="1532.16" stroke="#134679" stroke-opacity="0.07" stroke-width="1.94168"/>
<line x1="63.5267" y1="-265.832" x2="63.5266" y2="1532.16" stroke="#134679" stroke-opacity="0.07" stroke-width="1.94168"/>
<line x1="1057.66" y1="-265.833" x2="1057.66" y2="1532.16" stroke="#134679" stroke-opacity="0.07" stroke-width="1.94168"/>
<line x1="560.592" y1="-265.832" x2="560.592" y2="1532.16" stroke="#134679" stroke-opacity="0.07" stroke-width="1.94168"/>
<line x1="1554.74" y1="-265.832" x2="1554.74" y2="1532.16" stroke="#134679" stroke-opacity="0.07" stroke-width="1.94168"/>
<line x1="312.063" y1="-265.832" x2="312.063" y2="1532.16" stroke="#134679" stroke-opacity="0.07" stroke-width="1.94168"/>
<line x1="1306.2" y1="-265.832" x2="1306.2" y2="1532.16" stroke="#134679" stroke-opacity="0.07" stroke-width="1.94168"/>
<line x1="809.128" y1="-265.832" x2="809.128" y2="1532.16" stroke="#134679" stroke-opacity="0.07" stroke-width="1.94168"/>
<line x1="1803.26" y1="-265.832" x2="1803.26" y2="1532.16" stroke="#134679" stroke-opacity="0.07" stroke-width="1.94168"/>
</svg>
